<?xml version="1.0" encoding="UTF-8" standalone="no"?>
<!-- Created with Inkscape (http://www.inkscape.org/) -->

<svg
   xmlns:dc="http://purl.org/dc/elements/1.1/"
   xmlns:cc="http://creativecommons.org/ns#"
   xmlns:rdf="http://www.w3.org/1999/02/22-rdf-syntax-ns#"
   xmlns:svg="http://www.w3.org/2000/svg"
   xmlns="http://www.w3.org/2000/svg"
   xmlns:sodipodi="http://sodipodi.sourceforge.net/DTD/sodipodi-0.dtd"
   xmlns:inkscape="http://www.inkscape.org/namespaces/inkscape"
   id="svg3041"
   version="1.1"
   inkscape:version="0.48.4 r9939"
   width="464"
   height="381"
   sodipodi:docname="Capture.PNG">
  <metadata
     id="metadata3047">
    <rdf:RDF>
      <cc:Work
         rdf:about="">
        <dc:format>image/svg+xml</dc:format>
        <dc:type
           rdf:resource="http://purl.org/dc/dcmitype/StillImage" />
        <dc:title></dc:title>
      </cc:Work>
    </rdf:RDF>
  </metadata>
  <defs
     id="defs3045" />
  <sodipodi:namedview
     pagecolor="#ffffff"
     bordercolor="#666666"
     borderopacity="1"
     objecttolerance="10"
     gridtolerance="10"
     guidetolerance="10"
     inkscape:pageopacity="0"
     inkscape:pageshadow="2"
     inkscape:window-width="839"
     inkscape:window-height="598"
     id="namedview3043"
     showgrid="false"
     inkscape:zoom="0.8759958"
     inkscape:cx="189.716"
     inkscape:cy="172.23411"
     inkscape:window-x="0"
     inkscape:window-y="0"
     inkscape:window-maximized="0"
     inkscape:current-layer="svg3041" />
  <path
     style="fill:#000000"
     d="m 432.32177,359.61806 c -1.74803,-0.61493 -3.49723,-1.44227 -3.88713,-1.83852 -0.38989,-0.39625 -0.82969,-18.62125 -0.97733,-40.5 C 427.30967,295.40079 426.71154,258.6 426.12814,235.5 c -0.5834,-23.1 -1.0759,-63.17649 -1.09444,-89.05887 -0.0275,-38.37563 -0.28814,-47.406842 -1.41266,-48.944704 -1.23184,-1.684644 -1.4496,-1.091596 -2.04115,5.558874 -0.36421,4.09458 -1.11441,10.5947 -1.66713,14.4447 -2.0647,14.38206 -3.10704,21.12513 -3.94175,25.5 -0.47223,2.475 -2.02469,11.25 -3.44992,19.5 -5.68376,32.90079 -7.14275,40.12692 -12.61903,62.5 -5.16729,21.11072 -5.12012,20.94439 -8.79002,31 -2.21194,6.06077 -3.10358,10.27166 -3.1071,14.67371 -0.008,9.66623 -3.60882,25.02468 -6.78696,28.94602 -2.87505,3.54737 -5.31371,4.38212 -8.29624,2.8398 -4.54863,-2.35219 -6.3858,-9.87239 -7.81286,-31.9809 -0.93081,-14.42032 -3.8956,-31.16709 -13.62804,-76.97863 -1.40213,-6.6 -3.42673,-16.275 -4.4991,-21.5 -1.07237,-5.225 -2.88928,-13.775 -4.03758,-19 -4.01616,-18.27445 -7.10722,-32.53285 -7.91281,-36.5 -3.68529,-18.148522 -7.50495,-32.824533 -8.64171,-33.203452 -0.67551,-0.22517 -1.3459,2.010871 -1.74356,5.815502 -1.00701,9.634541 -0.72349,184.04896 0.33468,205.88795 0.51966,10.725 1.04234,26.33158 1.16151,34.68129 0.2416,16.92755 -0.27495,18.64233 -5.45822,18.11978 -7.14177,-0.72 -9.76688,-11.14026 -8.5153,-33.80107 0.61674,-11.16663 0.91905,-108.00779 0.44952,-144 -0.0395,-3.025 0.0303,-35.0508 0.15499,-71.168441 L 313,33.163119 l 3.48485,-2.153756 c 4.52525,-2.796756 6.84014,-1.980879 9.30286,3.278759 4.24277,9.061326 12.01468,36.113359 18.16044,63.211878 4.07237,17.95634 8.39319,37.86197 12.0471,55.5 1.83288,8.8476 8.18079,39.43911 10.06402,48.5 0.45725,2.2 1.26059,5.8 1.78519,8 0.52461,2.2 1.42927,6.25 2.01036,9 0.5811,2.75 1.91565,9.05 2.96567,14 1.05003,4.95 2.50953,12.4875 3.24334,16.75 1.36068,7.90374 2.30232,9.51527 3.21374,5.5 2.7106,-11.94145 6.14136,-28.11002 6.73692,-31.75 0.40496,-2.475 2.58935,-13.725 4.85421,-25 4.46418,-22.22379 5.62981,-28.19923 7.07133,-36.25 0.94429,-5.27383 1.80959,-9.86643 4.47478,-23.75 0.79187,-4.125 1.95926,-10.425 2.59422,-14 0.63495,-3.575 1.55553,-8.525 2.04573,-11 0.4902,-2.475 1.8309,-9.675 2.97933,-16 1.14843,-6.325 2.48604,-13.3 2.97247,-15.5 0.85119,-3.849677 2.95679,-14.529515 4.92891,-25 C 420.15598,44.710817 421,37.85846 421,31.620004 c 0,-6.423755 0.11029,-6.71747 3.25,-8.655298 4.10603,-2.534239 7.56526,-2.168155 9.78278,1.035294 1.59374,2.302338 1.65396,4.476618 0.76161,27.5 -1.14596,29.566968 -0.33603,57.18264 4.28195,146 0.57194,11 1.47519,40.475 2.00723,65.5 0.53205,25.025 1.22305,53.825 1.53556,64 0.85762,27.92264 -1.59155,35.68066 -10.29736,32.61806 z m -318.918,-7.61459 c -4.39258,-2.20938 -6.82986,-5.5829 -6.22918,-8.62203 0.40743,-2.06136 1.02807,-2.09543 15.0193,-0.82451 7.13732,0.64833 8.01355,0.51155 12.11285,-1.8908 9.15686,-5.36628 14.84943,-15.15569 18.99544,-32.66613 6.98603,-29.50506 5.48073,-49.66006 -5.86285,-78.5 -1.51432,-3.85 -3.06365,-7.45 -3.44297,-8 -0.37931,-0.55 -3.48864,-6.31854 -6.90962,-12.81897 -3.42098,-6.50043 -7.5377,-14.05386 -9.14827,-16.78539 C 119.27596,177.20399 111.68095,158.04177 108.55852,143 c -2.33659,-11.25612 -2.08549,-31.0993 0.52304,-41.33339 5.75082,-22.562236 17.94327,-37.655456 30.41844,-37.655456 7.06937,0 16.5,6.066397 16.5,10.613877 0,3.694072 -3.38262,4.721092 -9.90537,3.007435 -6.63098,-1.74209 -10.07147,-0.816551 -15.23848,4.09936 -4.60891,4.38492 -7.15365,9.465695 -10.33272,20.630044 -3.70904,13.02553 -3.57284,27.97765 0.39751,43.63813 4.68526,18.48031 5.76584,21.17469 14.93914,37.25 1.17696,2.0625 3.08787,5.4375 4.24648,7.5 1.15861,2.0625 2.4484,4.2 2.86619,4.75 2.15578,2.83798 12.50996,22.79728 16.36527,31.54661 0.85953,1.95064 2.73567,8.02564 4.1692,13.5 9.37714,35.80948 4.84172,75.81692 -11.04074,97.39172 -7.1424,9.70227 -14.88547,13.71378 -29.96648,15.52498 -3.90936,0.4695 -5.8935,0.15107 -9.09623,-1.45984 z m 100.81801,-0.12272 c -4.92881,-2.43972 -6.65661,-5.0121 -5.76162,-8.57802 0.56889,-2.26665 0.99072,-2.45312 4.33503,-1.91628 12.32723,1.9788 16.97233,1.90451 21.62086,-0.34581 7.26907,-3.5189 14.49193,-13.48146 17.42946,-24.04064 0.53553,-1.925 1.42117,-5.075 1.96809,-7 3.85685,-13.57492 5.1457,-44.46368 2.33663,-56 -3.62461,-14.88562 -11.82427,-34.62182 -21.39634,-51.5 -3.04315,-5.36589 -8.92855,-15.96512 -11.93824,-21.5 -10.95754,-20.1511 -17.48694,-49.97204 -14.91305,-68.11058 4.37983,-30.86527 19.01269,-51.07746 35.11413,-48.502735 10.10153,1.615299 18.23563,11.046073 11.67778,13.539361 -2.16849,0.824461 -8.28847,0.13048 -11.74738,-1.332105 -2.24486,-0.949233 -8.61417,1.996485 -12.16003,5.62385 -3.22323,3.297316 -7.44429,11.612936 -8.96939,17.669991 -4.9907,19.820858 -4.98187,23.327488 0.1194,47.390118 1.45272,6.85251 6.58387,21.81439 8.85237,25.81261 1.06396,1.87522 5.50112,9.48449 9.86036,16.90949 9.86464,16.80224 18.45926,33.63673 21.18726,41.5 8.7704,25.28009 9.65912,60.74986 2.12062,84.6368 -4.85799,15.39331 -13.96778,28.27678 -23.39503,33.08627 -3.39454,1.73179 -15.9963,4.63745 -20.56269,4.74125 -0.825,0.0188 -3.4252,-0.91885 -5.77822,-2.08357 z M 13.869147,350.82549 C 11.350411,350.15411 9.7147719,348.88401 8.5290898,346.67884 6.9035263,343.65556 6.917374,343.08405 8.8120674,335 10.411012,328.17782 10.664173,324.82218 10.094605,318 9.7043002,313.325 9.7757103,299.825 10.253294,288 10.782355,274.90043 10.713197,247.74556 10.076291,218.5 9.4043157,187.64414 9.3518899,155.49888 9.9295093,128.5 10.858216,85.090712 10.713531,81.551066 7.0944281,59.141558 L 4.9370594,45.783115 7.6347096,41.179923 c 4.2683104,-7.283321 6.6429304,-9.174709 11.5698354,-9.21539 2.3625,-0.01951 8.250396,-0.635902 13.084212,-1.369767 7.433437,-1.128538 9.82117,-1.117889 15.483586,0.06905 3.682156,0.771844 7.141988,1.850512 7.688516,2.39704 0.546528,0.546528 0.993686,2.769521 0.993686,4.939985 0,6.909385 -6.218366,9.407591 -20.855672,8.37869 -8.136238,-0.57192 -9.897174,-0.4141 -12.197584,1.093187 l -2.68855,1.761606 0.662089,11.132836 c 1.967924,33.090053 2.615412,59.0691 2.09688,84.13284 -0.318603,15.4 -0.776874,28.96558 -1.018378,30.14574 -0.664682,3.24809 1.461104,3.46659 12.767047,1.31227 12.588889,-2.39879 13.64771,-2.39906 16.764489,-0.004 1.969755,1.51344 2.462789,2.75114 2.378371,5.97062 -0.168429,6.42345 -1.009374,6.86324 -13.845773,7.24091 -9.705387,0.28555 -11.792917,0.64549 -14.19791,2.44806 -2.711451,2.03227 -2.812123,2.41567 -2.625727,10 0.106605,4.33769 0.356471,33.31171 0.555257,64.38671 0.289702,45.28738 0.658101,57.88917 1.85635,63.5 1.772106,8.29792 1.319953,8.12593 17.43634,6.63271 15.457058,-1.43213 26.62354,0.56745 27.775826,4.97379 0.516049,1.97338 -4.605558,7.25347 -8.001894,8.24951 -9.013904,2.64349 -41.428142,3.6068 -49.446559,1.46948 z"
     id="path3053"
     inkscape:connector-curvature="0" />
  <path
     style="fill:#000000"
     d=""
     id="path3051"
     inkscape:connector-curvature="0" />
</svg>
